<svg width="64" height="64" viewBox="0 0 64 64" fill="none" xmlns="http://www.w3.org/2000/svg">
<path d="M31.9998 2.74999C15.4358 2.74999 2.00781 16.178 2.00781 32.742C2.00781 45.912 10.4978 57.102 22.3038 61.132L22.5158 61.194C24.0158 61.476 24.5658 60.55 24.5658 59.752C24.5658 59.04 24.5418 57.152 24.5278 54.654C16.1858 56.464 14.4258 50.63 14.4258 50.63C13.8498 48.78 12.6698 47.26 11.1198 46.262L11.0878 46.244C8.37181 44.384 11.2978 44.422 11.2978 44.422C13.2718 44.7 14.9258 45.858 15.8758 47.482L15.8918 47.512C16.9998 49.502 19.0918 50.826 21.4938 50.826C22.6458 50.826 23.7258 50.522 24.6578 49.988L24.6258 50.004C24.7698 48.422 25.4678 47.026 26.5238 45.994L26.5258 45.992C19.8658 45.242 12.8638 42.662 12.8638 31.172C12.8638 31.118 12.8618 31.056 12.8618 30.994C12.8618 27.952 14.0358 25.184 15.9558 23.118L15.9498 23.126C15.5438 22.042 15.3078 20.79 15.3078 19.484C15.3078 17.93 15.6398 16.452 16.2378 15.12L16.2098 15.188C16.2098 15.188 18.7218 14.384 24.4578 18.262C26.7058 17.62 29.2878 17.25 31.9558 17.25C34.6238 17.25 37.2058 17.62 39.6538 18.31L39.4538 18.262C45.1518 14.384 47.6638 15.188 47.6638 15.188C48.2338 16.472 48.5658 17.968 48.5658 19.542C48.5658 20.826 48.3458 22.058 47.9398 23.202L47.9638 23.126C49.8698 25.19 51.0398 27.958 51.0398 31C51.0398 31.062 51.0398 31.122 51.0378 31.182V31.172C51.0378 42.694 44.0278 45.23 37.3538 45.968C38.6178 47.262 39.3978 49.032 39.3978 50.986C39.3978 51.172 39.3898 51.358 39.3758 51.542L39.3778 51.518C39.3778 55.532 39.3398 58.756 39.3398 59.73C39.3398 60.518 39.8638 61.454 41.4018 61.154C53.4578 57.096 61.9858 45.896 61.9858 32.702C61.9858 16.158 48.5738 2.74799 32.0318 2.74799C32.0198 2.74799 32.0058 2.74799 31.9938 2.74799H31.9958L31.9998 2.74999Z" fill="white"/>
</svg>
