<svg width="64" height="64" viewBox="0 0 64 64" fill="none" xmlns="http://www.w3.org/2000/svg">
<path d="M57.5558 2.008H6.43577C6.41977 2.008 6.40177 2.008 6.38177 2.008C3.98377 2.008 2.03777 3.936 2.00977 6.326V57.67C2.03777 60.062 3.98377 61.992 6.38177 61.992C6.40177 61.992 6.41977 61.992 6.43977 61.992H57.5498C57.5658 61.992 57.5858 61.992 57.6058 61.992C60.0058 61.992 61.9558 60.066 61.9938 57.674V57.67V6.33C61.9558 3.936 60.0058 2.008 57.6038 2.008C57.5838 2.008 57.5658 2.008 57.5458 2.008H57.5478H57.5558ZM19.7998 53.124H10.8918V24.502H19.7998V53.124ZM15.3478 20.586C12.4978 20.586 10.1898 18.276 10.1898 15.428C10.1898 12.58 12.4998 10.27 15.3478 10.27C18.1958 10.27 20.5058 12.578 20.5058 15.426C20.5058 15.428 20.5058 15.43 20.5058 15.434C20.5058 18.28 18.1978 20.588 15.3518 20.588C15.3498 20.588 15.3478 20.588 15.3458 20.588L15.3478 20.586ZM53.1118 53.124H44.2298V39.206C44.2298 35.886 44.1618 31.616 39.6018 31.616C34.9698 31.616 34.2638 35.228 34.2638 38.962V53.126H25.3818V24.504H33.9138V28.406H34.0298C35.6858 25.616 38.6818 23.776 42.1078 23.776C42.2298 23.776 42.3498 23.778 42.4698 23.782H42.4518C51.4518 23.782 53.1158 29.706 53.1158 37.416V53.126L53.1118 53.124Z" fill="white"/>
</svg>
