<svg width="51" height="45" viewBox="0 0 51 45" fill="none" xmlns="http://www.w3.org/2000/svg">
<path fill-rule="evenodd" clip-rule="evenodd" d="M5.45238 25.7679C5.45238 14.7325 14.3319 5.78658 25.2853 5.78658C36.2388 5.78658 45.1183 14.7325 45.1183 25.7679C45.1183 31.2862 42.9011 36.2781 39.3094 39.8968C38.3412 40.8721 38.3412 42.4536 39.3094 43.429C40.2775 44.4044 41.8472 44.4044 42.8154 43.429C47.299 38.9118 50.0766 32.6643 50.0766 25.7679C50.0766 11.9737 38.9772 0.79126 25.2853 0.79126C11.5935 0.79126 0.494141 11.9737 0.494141 25.7679C0.494141 32.673 3.2787 38.9276 7.77225 43.446C8.74134 44.4205 10.311 44.419 11.2783 43.4426C12.2455 42.4663 12.244 40.8849 11.2749 39.9104C7.67513 36.2907 5.45238 31.2931 5.45238 25.7679ZM36.9537 14.0113C37.9219 14.9867 37.9219 16.5681 36.9537 17.5435L31.9968 22.5375C32.4614 23.5157 32.7216 24.6112 32.7216 25.768C32.7216 29.9063 29.3918 33.261 25.2842 33.261C21.1767 33.261 17.8469 29.9063 17.8469 25.768C17.8469 21.6298 21.1767 18.275 25.2842 18.275C26.4324 18.275 27.5199 18.5372 28.4908 19.0053L33.4477 14.0113C34.4159 13.0359 35.9856 13.0359 36.9537 14.0113ZM25.2842 23.2704C23.9151 23.2704 22.8051 24.3886 22.8051 25.768C22.8051 27.1474 23.9151 28.2657 25.2842 28.2657C26.6534 28.2657 27.7634 27.1474 27.7634 25.768C27.7634 24.3886 26.6534 23.2704 25.2842 23.2704Z" fill="#B6B6B6"/>
</svg>
