<svg width="64" height="64" viewBox="0 0 64 64" fill="none" xmlns="http://www.w3.org/2000/svg">
<path d="M61.8342 13.456C59.7822 14.386 57.4002 15.066 54.9062 15.378L54.7842 15.39C57.3202 13.848 59.2282 11.486 60.1582 8.68202L60.1842 8.59402C57.9362 9.92802 55.3222 10.952 52.5442 11.522L52.3802 11.55C50.1342 9.15202 46.9462 7.65802 43.4102 7.65802C36.6282 7.65802 31.1302 13.156 31.1302 19.938C31.1302 20.93 31.2482 21.896 31.4702 22.82L31.4542 22.736C21.2282 22.228 12.2282 17.376 6.19618 10.004L6.14618 9.94202C5.10218 11.688 4.48418 13.794 4.48418 16.046C4.48418 16.072 4.48418 16.098 4.48418 16.124V16.12C4.48418 16.122 4.48418 16.126 4.48418 16.13C4.48418 20.37 6.63418 24.108 9.90218 26.316L9.94618 26.344C7.89418 26.276 5.98818 25.714 4.32418 24.774L4.38618 24.806V24.956C4.38618 24.958 4.38618 24.96 4.38618 24.96C4.38618 30.882 8.57618 35.828 14.1542 36.988L14.2342 37.002C13.2662 37.272 12.1542 37.426 11.0062 37.426C10.1942 37.426 9.40218 37.348 8.63418 37.2L8.71218 37.212C10.3382 42.13 14.8482 45.636 20.1902 45.74H20.2022C16.0582 49.016 10.7602 50.994 4.99818 50.994C4.98818 50.994 4.98018 50.994 4.97018 50.994H4.97218C3.94218 50.992 2.92818 50.932 1.93018 50.816L2.05218 50.828C7.37818 54.286 13.8922 56.342 20.8882 56.342C20.8982 56.342 20.9062 56.342 20.9162 56.342H20.9142C20.9882 56.342 21.0782 56.342 21.1662 56.342C40.3222 56.342 55.8522 40.812 55.8522 21.656C55.8522 21.578 55.8522 21.502 55.8522 21.424V21.436C55.8522 20.912 55.8522 20.388 55.8142 19.864C58.2342 18.108 60.2722 16.002 61.8982 13.592L61.9542 13.504L61.8342 13.456Z" fill="white"/>
</svg>
