<svg width="64" height="64" viewBox="0 0 64 64" fill="none" xmlns="http://www.w3.org/2000/svg">
<path fill-rule="evenodd" clip-rule="evenodd" d="M9.06683 9.06665C5.3335 12.8355 5.3335 18.8622 5.3335 30.9333V33.0666C5.3335 45.12 5.3335 51.1466 9.06683 54.9333C12.8357 58.6666 18.8624 58.6666 30.9335 58.6666H33.0668C45.1202 58.6666 51.1468 58.6666 54.9335 54.9333C58.6668 51.1645 58.6668 45.1378 58.6668 33.0666V30.9333C58.6668 18.88 58.6668 12.8533 54.9335 9.06665C51.1647 5.33331 45.138 5.33331 33.0668 5.33331H30.9335C18.8802 5.33331 12.8535 5.33331 9.06683 9.06665ZM14.329 21.5644C14.6135 35.4312 21.5468 43.7512 33.7068 43.7512H34.418V35.8221C38.8802 36.2666 42.258 39.5378 43.609 43.7512H49.9202C49.273 41.357 48.1252 39.1272 46.5532 37.2088C44.9812 35.2906 43.0204 33.7274 40.8002 32.6221C42.7898 31.4106 44.5082 29.8016 45.8479 27.896C47.1876 25.9904 48.1202 23.8289 48.5868 21.5466H42.8623C41.618 25.9556 37.9202 29.9554 34.418 30.3288V21.5644H28.6756V36.9245C25.1202 36.0354 20.6402 31.7333 20.4446 21.5644H14.329Z" fill="white"/>
</svg>
